<svg xmlns="http://www.w3.org/2000/svg" data-name="Layer 1" width="441" height="534" style=""><rect id="backgroundrect" width="100%" height="100%" x="0" y="0" fill="none" stroke="none" class="" style=""/><title>online_calendar</title><g class="currentLayer" style=""><title>Layer 1</title><path d="M247.1210213241577,88.53042582702636 c-0.062190000000000085,0.3108600000000004 -0.12437000000000002,0.6128800000000005 -0.1954400000000003,0.9237400000000006 c-3.25092,13.87423 -2.53145,27.91723 1.51,42.10238 H180.92973132415773 l10.65882,-48.75525 a24.90115,24.90115 0 0 1 8.55371,-18.80393 c0.453,-0.39971000000000034 0.9237400000000006,-0.79054 1.41226,-1.14586 a24.8029,24.8029 0 0 1 15.00231,-5.01849 h5.79131 a25.94134,25.94134 0 0 1 10.15252,2.05182 c0.5418200000000005,0.231 1.0747900000000001,0.47963 1.58993,0.7460900000000008 c11.19179,3.89047 17.93347,15.41091 16.5745,27.31323 c-1.6166,14.15847 0.7372500000000005,28.02387 6.3953,41.64048 l-3.52632,0.4086 C247.89380132415772,116.43873582702639 245.5399513241577,102.63558582702638 247.1210213241577,88.53042582702636 z" fill="#2f2e41" id="svg_2" class=""/><path d="M206.2444313241577,95.58299582702637 s5.32941,23.09411 -5.32941,24.87059 s27.53529,7.10588 27.53529,7.10588 s-2.6647000000000007,-18.65294 3.553,-24.87059 z" fill="#fbbebe" id="svg_3" class=""/><path d="M161.7758813241577,255.40849582702634 s-2.1772,27.16013 7.08906,27.5253 s4.11906,-26.743 4.11906,-26.743 z" fill="#fbbebe" id="svg_4" class=""/><path d="M285.2973713241577,268.78887582702635 s8.88236,25.75882 0,28.42353 s-10.65882,-24.87059 -10.65882,-24.87059 z" fill="#fbbebe" id="svg_5" class=""/><polygon points="238.22100830078125,140.8824920654297 250.72201538085938,138.97450256347656 255.98599243164062,142.6595001220703 260.4270324707031,155.9824981689453 271.0860290527344,210.16549682617188 279.08001708984375,245.69448852539062 291.5150146484375,270.56549072265625 271.0860290527344,279.447509765625 251.54400634765625,215.4945068359375 238.22100830078125,140.8824920654297 " fill="#6c63ff" id="svg_6" class=""/><path d="M188.9238413241577,207.05652582702635 s-5.32941,35.52941 -1.77647,42.63529 c0,0 -6.61115,41.24665 -11.54706,68.39412 l-7.10588,39.08235 l-15.98823,59.51177 L178.26502132415771,423.7859358270264 l52.40588,-145.67059 l15.1,81.71765 l2.6647100000000004,58.62353 l27.53529,-0.8882400000000008 L272.4179613241577,315.4212258270263 s15.98824,-67.50588 -11.54706,-92.37647 s-31.97647,-24.87059 -31.97647,-24.87059 z" fill="#2f2e41" id="svg_7" class="" transform="rotate(-0.5566899180412292 214.77005004882756,310.98007202148614) "/><path d="M267.5326713241577,414.9035858270264 l7.10588,23.98235 l4.44118,21.31765 s15.98823,23.98235 0,21.31764 S261.3150213241577,469.97416582702635 261.3150213241577,469.97416582702635 v-5.32941 l-4.44118,-2.6647000000000007 v-8.88236 s-6.21764,-4.44117 0,-11.54706 l-2.6647000000000007,-24.87058 z" fill="#2f2e41" id="svg_8" class=""/><path d="M159.16796132415772,414.9035858270264 l-7.10588,23.98235 l-4.44118,21.31765 s-15.98823,23.98235 0,21.31764 s17.76471,-11.54706 17.76471,-11.54706 v-5.32941 l4.44117,-2.6647000000000007 v-8.88236 s6.21765,-4.44117 0,-11.54706 l2.6647100000000004,-24.87058 z" fill="#2f2e41" id="svg_9" class=""/><circle cx="223.1208953857422" cy="85.81240844726562" r="22.20587921142578" fill="#fbbebe" id="svg_10" class=""/><path d="M200.9150213241577,116.01242582702639 s23.09412,9.77059 29.31176,7.99412 s7.99412,6.21764 7.99412,6.21764 l17.76471,12.4353 l-5.32941,30.2 s4.44117,15.98823 -0.8882400000000008,26.64706 c0,0 14.21177,4.44117 8.88235,11.54706 c0,0 9.77059,5.32941 4.44118,15.98823 c0,0 -26.64706,-7.10588 -29.31176,-20.42941 l-27.5353,3.55294 l-19.54117,15.1 s-9.77059,-0.8882400000000008 -6.21765,-15.1 a50.66533,50.66533 0 0 0 -0.8882400000000008,-26.64706 l-9.77059,-62.17647 z" fill="#6c63ff" id="svg_11" class=""/><path d="M172.7682413241577,120.51808582702637 l-3.54657,0.94032 a6.309,6.309 0 0 0 -3.1759,1.99548 l-1.14935,1.3426 a8.15071,8.15071 0 0 0 -1.93913,4.7330000000000005 l-0.7903,11.32323 l-1.24965,55.12851 l1.11984,36.40042 l-5.83939,27.1861 l21.99914,3.5064 l2.97326,-66.80566 L175.6714313241577,122.5844258270264 A2.31605,2.31605 0 0 0 172.7682413241577,120.51808582702637 z" fill="#6c63ff" id="svg_12" class=""/><path d="M227.4732813241577,129.02501582702638 c-3.64652,-8.82922 -9.05058,-18.16084 -12.61767,-26.53695 c-2.46168,-9.786 -3.08025,-18.16285 2.49176,-22.44919 c0,-9.42416 0.3286500000000003,-15.57079 -7.15917,-20.15406 a24.91349,24.91349 0 0 0 -5.07493,2.96993 l-0.005810000000000004,-0.0032600000000000055 c-0.29633000000000026,0.21556000000000014 -0.5839300000000005,0.44629 -0.8672000000000005,0.6820000000000008 c-0.11981000000000007,0.09878000000000015 -0.23653000000000013,0.20070000000000013 -0.35444000000000025,0.30165000000000025 c-0.06300000000000007,0.05459000000000007 -0.12827,0.1072300000000001 -0.19062,0.16220000000000023 l0.005750000000000003,0.0039100000000000055 a24.89479,24.89479 0 0 0 -8.55946,18.8 v46.97878 h27.53529 c-0.91068,-3.96806 -2.12284,-8.08005 -3.37831,-12.178 c1.98784,3.96789 3.9428900000000002,7.96262 5.5545,11.85824 z" fill="#2f2e41" id="svg_13" class=""/><path d="M248.43561132415772,80.03887582702635 c-12.03406,3.37431 -25.57013,2.8181599999999998 -39.97059,0 V62.274165827026366 h22.2059 a17.76469,17.76469 0 0 1 17.76469,17.76469 z" fill="#2f2e41" id="svg_14" class=""/></g></svg>