<svg xmlns="http://www.w3.org/2000/svg" data-name="Layer 1" width="488" height="692.30649"><rect id="backgroundrect" width="100%" height="100%" x="0" y="0" fill="none" stroke="none"/><g class="currentLayer" style=""><title>Layer 1</title><path d="M313.61607000000004,192.46374638916018 s-20.74023,3.45319 -31.39661,1.51634 s-31.80118,9.05607 -31.80118,9.05607 L194.54100000000005,223.72362638916013 S144,265.13401638916014 136.89279,236.28074638916013 C132.91246999999998,220.12175638916017 185,207.13401638916014 185,207.13401638916014 l91.55538,-43.85558 L309.86800000000005,151.76412638916017 z" fill="#ffb9b9" id="svg_2"/><path d="M317.60630000000003,313.13401638916014 l-14.606300000000001,14 l2.6063,61 s3,80 2,83 s-19,125 -19,125 s21,10 40,4 c0,0 19,-90 19,-116 l22,-91 l34,104 s2,70 6,93 s4,26 4,26 s32,9 40,0 c0,0 -4,-118 -7,-130 l-7,-143 z" fill="#2f2e41" id="svg_3"/><path d="M296.60630000000003,596.1340163891601 s-2,-3 -8,5 s-25,23 -25,23 s-52,37 -13,39 s46,-18 46,-18 s33,-6 34,-13 s-4,-35 -4,-35 z" fill="#2f2e41" id="svg_4"/><path d="M415.60630000000003,614.1340163891601 s-7,24 -5,34 s-4,47 24,44 s19,-35 19,-35 l-9,-41 z" fill="#2f2e41" id="svg_5"/><circle cx="376.1062927246094" cy="57.6340217590332" r="33" fill="#ffb9b9" id="svg_6"/><path d="M356.60630000000003,75.13401638916017 s10,35 2,48 s54,2 58,-10 c0,0 -20,-22 -17,-43 z" fill="#ffb9b9" id="svg_7"/><path d="M372.60630000000003,122.13401638916017 s27.37433,1.85068 40.68719,-13.07466 l35.61623,15.2212 a18.68494,18.68494 0 0 1 11.04321,20.51017 L441.60630000000003,246.13401638916014 s8.3937,64 4,107 c-3.96955,38.849 -148,0 -143,-33 c0.53571,-3.53571 1.03,-7.1517800000000005 1.48567,-10.7904 a851.21717,851.21717 0 0 1 18.20737,-96.53992 c2.65931,-10.86445 -4.6930000000000005,-72.66968 -4.6930000000000005,-72.66968 l44.0177,-29.16491 S363.60630000000003,122.13401638916017 372.60630000000003,122.13401638916017 z" fill="#6c63ff" id="svg_8"/><path d="M342.93116999999995,137.54846638916015 l-8.36774,-8.60122 l-61.29186,34.51532 s17.955,31.3627 25.02537,31.46 c2.7097800000000003,0.03728 34.86645,1.6100500000000002 42.70306,-8.78854 C353.61078,169.40046638916016 342.93116999999995,137.54846638916015 342.93116999999995,137.54846638916015 z" fill="#6c63ff" id="svg_9"/><path d="M367.99882,36.04084638916015 a131.9476,131.9476 0 0 1 14.78674,-1.466 c3.58838,-0.15247000000000002 7.32672,-0.12821000000000002 10.5694,1.41606 c4.88922,2.32843 7.6286000000000005,7.59193 9.42205,12.70169 s3.06556,10.57041 6.39258,14.84325 c5.53565,-5.77823 6.64191,-14.36872 7.46607,-22.32814 c0.5797100000000001,-5.59838 1.0935000000000001,-11.56786 -1.49506,-16.5656 c-1.59436,-3.07822 -4.22485,-5.477 -6.88934,-7.6947 c-12.71967,-10.5866 -28.87451,-18.9168 -45.25171,-16.539 l-0.3831800000000001,2.52845 a45.15583,45.15583 0 0 0 -8.35382,0.525 l0.5851400000000001,6.273 l-8.69909,0.55181 l-0.33374000000000004,6.5376900000000004 l-8.79749,0.30500000000000005 a10.193060000000001,10.193060000000001 0 0 0 3.06879,6.62728 a12.39189,12.39189 0 0 1 -4.51862,2.041 c1.467,5.679 2.89112,11.371 4.40662,17.03723 c1.11645,4.174 0.917,7.86191 5.3941,5.82489 c3.40882,-1.5510000000000002 5.71521,-6.48311 9.1615,-8.52087 C358.59000000000003,37.738236389160164 363.39523999999994,36.760986389160166 367.99882,36.04084638916015 z" fill="#2f2e41" id="svg_10"/><path d="M476.33934,181.74523638916014 l0.48478000000000004,35.24308 L466.67236,317.9964363891602 s5.47583,53.40231 -11.07446,55.147 c-29.552,3.11529 -7.76954,-58.48619 -7.76954,-58.48619 l0.47900000000000004,-59.582 s3.15759,-23.62152 -2.28355,-32.98655 s-9.23763,-30.04518 -9.23763,-30.04518 z" fill="#ffb9b9" id="svg_11"/><path d="M448.60630000000003,127.13401638916017 h0 a18.67814,18.67814 0 0 1 17.94978,13.4951 c6.38632,22.12922 17.98488,63.77124 15.05021,64.5049 c-4,1 -51,4 -51,4 z" fill="#6c63ff" id="svg_12"/><path d="M83.62571000000003,296.79582638916014 l0.24115,0.05822000000000001 a21.33444,21.33444 0 0 1 3.27859,40.39908 a21.00225,21.00225 0 0 1 -5.08833,1.436 a21.34077,21.34077 0 1 1 1.56859,-41.89335 z" fill="#6c63ff" id="svg_13"/><path d="M83.62571000000003,296.79582638916014 a306.27742,306.27742 0 0 1 3.51974,40.457300000000004 a21.00225,21.00225 0 0 1 -5.08833,1.436 a222.04709,222.04709 0 0 0 -3.70668,-42.43177 A21.30753,21.30753 0 0 1 83.62571000000003,296.79582638916014 z" fill="#e6e6e6" id="svg_14"/><path d="M168.56253000000004,301.2509163891602 l-73.20361,2.97092 l2.06193,24.23171 l72.75248,-10.97276 a4.99071,4.99071 0 0 0 4.27457,-5.51429 l-0.09855000000000003,-0.8562200000000001 l2.872,-0.11908000000000002 a2.52094,2.52094 0 0 0 2.3905600000000002,-2.8796500000000003 l-0.017590000000000005,-0.12160000000000001 a2.521,2.521 0 0 0 -2.76211,-2.1459 l-3.05154,0.32519000000000003 l-0.057810000000000014,-0.5023 A4.99072,4.99072 0 0 0 168.56253000000004,301.2509163891602 z" fill="#3f3d56" id="svg_15"/><path d="M128.01382,315.51664638916014 a1.4874200000000002,1.4874200000000002 0 0 1 -1.38507,1.13831 l-5.25786,0.21789000000000003 a1.49506,1.49506 0 0 1 -1.52607,-1.219 l-0.5327900000000001,-2.90545 a1.48864,1.48864 0 0 1 1.3066,-1.74866 l5.32,-0.5670000000000001 a1.48379,1.48379 0 0 1 1.63088,1.267 l-0.0002400000000000001,-0.00005000000000000002 l0.47111000000000003,3.2549200000000003 A1.49366,1.49366 0 0 1 128.01382,315.51664638916014 zM120.29347999999999,312.36323638916014 a0.49544000000000005,0.49544000000000005 0 0 0 -0.005380000000000001,0.20606000000000002 l0.533,2.90574 a0.49811000000000005,0.49811000000000005 0 0 0 0.5085099999999999,0.40637000000000006 l5.25786,-0.21789000000000003 a0.49633000000000005,0.49633000000000005 0 0 0 0.47059,-0.5670000000000001 l-0.47093,-3.25464 a0.49420000000000003,0.49420000000000003 0 0 0 -0.54331,-0.42224 l-5.32019,0.5670000000000001 a0.48875,0.48875 0 0 0 -0.3446800000000001,0.19618000000000002 A0.4943600000000001,0.4943600000000001 0 0 0 120.29347999999999,312.36323638916014 z" fill="#e6e6e6" id="svg_16"/></g></svg>